<svg xmlns="http://www.w3.org/2000/svg" width="1000" height="1000" viewBox="0 0 1000 1000" fill="none"><rect width="1000" height="1000" rx="500" fill="black"></rect><path d="M232.344 628.587C229.316 629.527 227.686 629.628 225.209 631.812C223.084 633.685 221.168 640.783 224.225 642.506C225.326 643.126 226.564 641.754 227.827 641.755C229.077 641.757 231.49 640.51 232.407 641.041C234.029 641.984 233.349 645.588 236.215 646.046C238.762 646.453 240.504 643.241 243.088 643.249C244.118 643.252 245.693 643.495 246.525 644.328C248.034 645.837 253.691 646.275 255.295 644.671C257.74 642.225 258.495 641.991 258.495 641.991C258.495 641.991 261.561 645.182 267.575 644.238C269.811 643.887 272.843 643.453 273.542 641.1C274.193 638.908 273.715 637.949 275.953 637.563C282.182 636.49 281.307 630.128 281.307 630.128C281.307 630.128 283.834 629.153 283.905 626.926C283.959 625.216 282.264 622.781 280.463 622.781C271.442 622.781 234.986 627.767 232.344 628.587Z" fill="black"></path><path d="M767.63 628.587C770.658 629.527 772.286 629.628 774.763 631.812C776.889 633.685 778.804 640.783 775.748 642.506C774.647 643.126 773.409 641.754 772.146 641.755C770.896 641.757 768.483 640.51 767.566 641.041C765.944 641.984 766.623 645.588 763.758 646.046C761.211 646.453 759.468 643.241 756.885 643.249C755.854 643.252 754.279 643.495 753.447 644.328C751.939 645.837 746.282 646.275 744.678 644.671C742.233 642.225 741.478 641.991 741.478 641.991C741.478 641.991 738.412 645.182 732.398 644.238C730.162 643.887 727.13 643.453 726.431 641.1C725.779 638.908 726.258 637.949 724.02 637.563C717.791 636.49 718.666 630.128 718.666 630.128C718.666 630.128 716.138 629.153 716.068 626.926C716.013 625.216 717.709 622.781 719.51 622.781C728.531 622.781 764.987 627.767 767.63 628.587Z" fill="black"></path><path d="M286.074 670.043L250.001 673.709C249.138 673.796 248.311 674.097 247.593 674.584C246.876 675.071 246.291 675.728 245.891 676.498C245.491 677.267 245.288 678.124 245.301 678.991C245.315 679.858 245.543 680.708 245.967 681.464C246.22 681.916 252.302 692.703 264.708 707.591C269.714 713.692 278.429 722.393 286.885 729.725C301.345 742.264 309.55 746.641 309.55 746.641C304.07 735.515 299.744 723.856 296.641 711.847C292.266 694.062 291.708 674.099 291.655 673.899C291.335 672.698 290.597 671.65 289.574 670.943C288.552 670.236 287.31 669.917 286.074 670.043Z" fill="white"></path><path d="M713.902 670.043L749.976 673.709C750.838 673.796 751.665 674.097 752.383 674.584C753.1 675.07 753.686 675.728 754.086 676.497C754.486 677.267 754.688 678.123 754.675 678.991C754.662 679.858 754.433 680.708 754.01 681.464C753.757 681.916 747.674 692.703 735.269 707.591C730.262 713.692 721.548 722.393 713.09 729.725C698.632 742.264 690.426 746.641 690.426 746.641C695.906 735.514 700.232 723.856 703.335 711.847C707.71 694.062 708.268 674.099 708.322 673.899C708.642 672.698 709.379 671.65 710.402 670.943C711.425 670.236 712.666 669.917 713.902 670.043Z" fill="white"></path><path d="M500.015 804.655C567.969 803.533 602.849 796.728 620.342 791.463C652.819 781.686 677.267 758.904 673.551 714.289C673.451 713.054 672.957 711.249 673.185 710.448C673.71 708.636 679.432 706.487 682.327 705.511C692.384 702.135 708.581 702.372 720.724 703.316C738.446 704.695 753.614 707.317 770.095 709.717C797.292 713.672 831.22 717.018 859.324 711.363C862.913 710.639 867.858 710.106 870.479 708.62C871.796 707.874 872.599 705.023 871.471 702.586C870.64 700.779 863.85 701.092 860.787 700.756C849.387 699.564 838.23 696.667 827.691 692.16C808.178 683.565 799.533 668.384 799.533 664.729C799.533 662.368 816.197 649.479 837.566 641.322C849.197 637.03 861.11 633.547 873.221 630.898C877.237 629.983 883.202 629.633 884.922 627.423C885.488 626.707 885.724 624.473 885.107 622.851C884.475 621.182 878.73 620.108 875.78 619.376C851.005 613.227 824.233 607.641 798.254 603.466C766.818 598.414 734.804 594.611 699.149 595.603C664.994 596.555 632.942 601.47 611.93 615.353C606.467 618.803 601.482 622.958 597.103 627.709C592.432 632.798 589.783 639.42 589.657 646.328C589.328 666.574 596.245 672.394 598.764 691.247C563.022 701.897 515.739 702.773 500.015 702.628H499.988C484.264 702.773 436.98 701.897 401.239 691.247C403.758 672.394 410.675 666.574 410.346 646.328C410.22 639.42 407.571 632.798 402.899 627.709C398.521 622.957 393.536 618.803 388.073 615.353C367.061 601.47 335.009 596.555 300.854 595.603C265.199 594.611 233.185 598.414 201.75 603.466C175.77 607.641 148.998 613.227 124.223 619.376C121.273 620.108 115.528 621.182 114.896 622.851C114.279 624.473 114.515 626.707 115.08 627.423C116.801 629.633 122.767 629.983 126.782 630.898C138.893 633.547 150.806 637.03 162.437 641.322C183.806 649.479 200.471 662.368 200.471 664.729C200.471 668.384 191.825 683.565 172.312 692.16C161.773 696.667 150.616 699.565 139.216 700.756C136.153 701.092 129.362 700.779 128.531 702.586C127.404 705.023 128.207 707.874 129.524 708.62C132.145 710.106 137.091 710.639 140.679 711.363C168.784 717.018 202.711 713.672 229.908 709.717C246.388 707.317 261.557 704.695 279.279 703.316C291.422 702.372 307.619 702.135 317.676 705.511C320.571 706.487 326.294 708.636 326.819 710.448C327.047 711.249 326.552 713.054 326.453 714.289C322.736 758.904 347.184 781.686 379.662 791.463C397.155 796.728 432.033 803.533 499.988 804.655H500.015Z" fill="white"></path><path d="M327.141 702.163C327.141 702.163 333.877 672.966 342.019 657.522C344.544 652.733 346.668 650.701 352.558 650.392C358.447 650.082 364.956 649.462 375.805 650.701C386.654 651.941 393.473 652.252 397.813 651.322C402.152 650.392 407.421 648.841 399.672 636.131C391.923 623.421 366.506 607.301 320.942 604.2C275.377 601.1 216.226 603.132 128.816 625.143C128.816 625.143 157.456 625.832 191.824 649.033C201.48 655.552 207.046 660.404 207.374 666.707C207.669 672.358 190.964 700.465 148.291 705.884C148.291 705.884 190.447 709.603 244.07 699.993C297.694 690.383 318.152 696.273 327.141 702.163Z" fill="#A1A1A1"></path><path d="M500.003 709.614C538.381 709.614 563.844 707.193 599.002 698.897C624.491 692.882 639.765 682.419 652.144 662.718C652.144 662.718 693.306 740.305 641.638 774.233C626.742 784.015 584.777 796.832 500.003 796.832H499.987C415.214 796.832 373.25 784.015 358.352 774.233C306.684 740.305 347.847 662.718 347.847 662.718C360.226 682.419 375.5 692.882 400.989 698.897C436.146 707.193 461.61 709.614 499.987 709.614H500.003Z" fill="#A1A1A1"></path><path d="M672.848 702.163C672.848 702.163 666.112 672.966 657.97 657.522C655.445 652.733 653.32 650.701 647.431 650.392C641.541 650.082 635.032 649.462 624.183 650.701C613.334 651.941 606.516 652.252 602.177 651.322C597.837 650.392 592.568 648.841 600.317 636.131C608.065 623.421 633.482 607.301 679.047 604.2C724.612 601.1 783.762 603.132 871.172 625.143C871.172 625.143 842.533 625.832 808.165 649.033C798.509 655.552 792.943 660.404 792.614 666.707C792.319 672.358 809.025 700.465 851.697 705.884C851.697 705.884 809.541 709.603 755.917 699.993C702.294 690.383 681.836 696.273 672.848 702.163Z" fill="#A1A1A1"></path><path d="M205.258 655.756L209.301 661.88C215.41 661.423 221.828 660.612 228.062 659.716L227.393 652.925C219.842 654.092 211.576 655.283 205.258 655.756ZM238.051 651.254C236.998 651.417 235.876 651.594 234.713 651.777L235.388 658.621C236.644 658.429 237.885 658.236 239.104 658.047C245.095 657.119 250.784 656.238 255.725 655.669L255.136 648.817C250.015 649.402 244.19 650.302 238.051 651.254ZM320.201 649.383L319.352 656.224C331.723 658.259 337.674 660.877 337.789 660.931L340.73 655.401C339.882 654.553 333.24 651.564 320.201 649.383ZM263.088 654.947C270.653 654.296 277.594 653.973 283.957 653.883L284.248 646.982C277.616 647.074 270.38 647.416 262.498 648.097L263.088 654.947ZM291.361 653.887C298.267 653.976 305.164 654.413 312.026 655.197L312.876 648.339C305.829 647.525 298.745 647.073 291.652 646.987L291.361 653.887Z" fill="#FFFF00"></path><path d="M772.556 652.925L771.886 659.716C778.12 660.612 784.538 661.423 790.647 661.88L794.69 655.756C788.373 655.283 780.106 654.092 772.556 652.925ZM744.812 648.817L744.223 655.669C749.164 656.238 754.854 657.119 760.844 658.047C762.063 658.236 763.305 658.429 764.561 658.621L765.236 651.777C764.072 651.594 762.951 651.417 761.897 651.254C755.758 650.302 749.933 649.402 744.812 648.817ZM659.219 655.401L662.159 660.931C662.275 660.877 668.225 658.259 680.597 656.224L679.748 649.383C666.708 651.564 660.066 654.553 659.219 655.401ZM737.45 648.097C729.569 647.416 722.332 647.074 715.7 646.982L715.991 653.883C722.354 653.973 729.294 654.296 736.861 654.947L737.45 648.097ZM708.297 646.987C701.203 647.073 694.119 647.524 687.072 648.339L687.922 655.197C694.784 654.413 701.681 653.976 708.587 653.887L708.297 646.987Z" fill="#FFFF00"></path><path d="M353.332 658.146C361.027 657.798 368.737 657.939 376.414 658.569C388.856 659.614 395.263 660.239 402.337 657.964C402.337 657.964 399.297 668.983 397.54 674.895C395.783 680.807 394.656 686.649 394.656 689.601C394.656 689.601 367.123 684.192 353.332 658.146Z" fill="#575757"></path><path d="M646.661 658.146C638.966 657.798 631.257 657.939 623.579 658.569C611.138 659.614 604.731 660.239 597.656 657.964C597.656 657.964 600.697 668.983 602.454 674.895C604.211 680.807 605.337 686.649 605.337 689.601C605.337 689.601 632.871 684.192 646.661 658.146Z" fill="#575757"></path><path d="M337.459 699.741L335.973 709.849C338.494 713.383 341.294 716.709 344.346 719.796L348.838 713.805C344.491 709.593 340.671 704.871 337.459 699.741Z" fill="#FFFF00"></path><path d="M349.824 724.821C355.606 729.563 361.966 733.552 368.751 736.695L371.855 729.672C365.652 726.673 359.8 722.999 354.403 718.715L349.824 724.821Z" fill="#FFFF00"></path><path d="M375.535 739.644C383.161 743.198 389.457 745.662 398.382 747.262L400.143 740.011C392.705 738.414 385.475 735.967 378.596 732.719L375.535 739.644Z" fill="#FFFF00"></path><path d="M651.137 713.805L655.628 719.796C658.68 716.709 661.48 713.383 664.001 709.849L662.515 699.741C659.303 704.871 655.483 709.593 651.137 713.805Z" fill="#FFFF00"></path><path d="M645.569 718.715C640.173 722.999 634.32 726.673 628.117 729.672L631.222 736.695C638.007 733.552 644.366 729.563 650.148 724.821L645.569 718.715Z" fill="#FFFF00"></path><path d="M621.378 732.719C614.499 735.967 607.27 738.414 599.832 740.011L601.592 747.262C610.517 745.662 616.813 743.198 624.438 739.644L621.378 732.719Z" fill="#FFFF00"></path><path d="M267.455 232.037C256.572 236.183 256.919 240.891 256.73 242.123C256.237 245.321 255.745 249.704 255.543 251.042C255.319 252.521 254.545 262.499 250.248 251.614C245.952 240.73 232.346 237.843 219.891 240.73C196.406 246.172 141.418 275.675 129.676 289.424C124.006 296.064 117.933 301.741 118.793 316.35C118.793 316.35 113.638 419.181 228.196 631.146C228.196 631.146 234.857 640.968 255.118 639.167C274.449 637.448 278.029 631.719 277.457 621.407C276.884 611.095 263.247 537.432 279.747 446.679C282.039 434.076 284.329 439.804 286.621 443.815C286.621 443.815 291.776 451.835 294.354 454.413C296.931 456.991 298.466 462.26 310.965 456.704C310.965 456.704 384.559 417.136 499.986 417.136C615.413 417.136 689.036 456.704 689.036 456.704C701.535 462.26 703.068 456.991 705.646 454.413C708.223 451.835 713.379 443.815 713.379 443.815C715.671 439.804 717.961 434.076 720.253 446.679C736.753 537.432 723.116 611.095 722.544 621.407C721.971 631.719 725.551 637.448 744.883 639.167C765.143 640.968 771.804 631.146 771.804 631.146C886.362 419.181 881.208 316.35 881.208 316.35C882.067 301.741 875.994 296.064 870.324 289.424C858.581 275.675 803.593 246.172 780.11 240.73C767.654 237.843 754.047 240.73 749.752 251.614C745.456 262.499 744.682 252.521 744.457 251.042C744.254 249.704 743.762 245.321 743.271 242.123C743.082 240.891 743.429 236.183 732.546 232.037C732.546 232.037 655.509 197.538 499.986 197.538C344.464 197.538 267.455 232.037 267.455 232.037Z" fill="white"></path><path d="M500.108 626.802H498.978L498.131 627.05C497.104 627.35 472.676 634.641 447.289 655.083C423.759 674.027 395.041 708.272 391.854 763.819L391.844 763.996V764.172C391.844 765.676 391.855 801.142 392.857 811.824C394.318 827.387 403.653 838.193 419.142 842.248C436.118 846.698 467.048 849.462 499.861 849.462H500.108C532.919 849.462 563.85 846.698 580.829 842.248C596.316 838.193 605.651 827.388 607.113 811.824C608.113 801.142 608.125 765.676 608.125 764.172V763.996L608.115 763.819C604.928 708.272 576.211 674.027 552.681 655.083C527.292 634.641 502.866 627.35 501.839 627.05L500.992 626.802H500.108Z" fill="white"></path><path d="M499.862 843.294C465.822 843.294 435.999 840.29 420.705 836.282C405.41 832.278 399.985 821.76 398.998 811.247C398.012 800.73 398.012 764.172 398.012 764.172C403.931 661.014 499.862 632.97 499.862 632.97H500.11C500.11 632.97 596.04 661.014 601.961 764.172C601.961 764.172 601.961 800.73 600.974 811.247C599.988 821.76 594.562 832.278 579.268 836.282C563.972 840.29 534.151 843.294 500.11 843.294H499.862Z" fill="#097B7D"></path><path d="M492.857 809.508V735.818H485.309V724.418C490.076 723.796 494.236 722.94 496.207 718.499H508.604V809.508H492.857Z" fill="white"></path><path d="M429.139 702.98C428.605 702.539 427.951 702.268 427.262 702.202C426.573 702.135 425.879 702.276 425.271 702.606C422.79 703.774 422.394 706.612 423.838 709.686C425.238 712.663 427.745 714.253 430.225 713.087C431.714 712.387 432.288 711.338 432.474 709.462L436.039 709.805C436.067 711.219 435.664 712.609 434.885 713.789C434.106 714.97 432.986 715.886 431.675 716.416C427.351 718.448 422.89 716.507 420.437 711.284C418.07 706.252 419.451 701.334 423.774 699.3C425 698.634 426.399 698.356 427.786 698.502C429.174 698.649 430.484 699.213 431.544 700.12L429.139 702.98Z" fill="white"></path><path d="M452.644 708.989L450.176 705.446L443.734 707.224L443.434 711.533L439.66 712.576L441.538 693.095L444.96 692.151L456.52 707.918L452.644 708.989ZM446.028 699.548C445.391 698.614 444.747 697.653 444.391 697.048C444.395 697.751 444.335 698.904 444.267 700.034L444.018 703.543L448.044 702.431L446.028 699.548Z" fill="white"></path><path d="M459.882 707.401L456.953 689.36L460.561 688.773L462.912 703.257L471.957 701.789L472.534 705.345L459.882 707.401Z" fill="white"></path><path d="M476.632 704.991L474.863 686.801L478.501 686.448L480.269 704.639L476.632 704.991Z" fill="white"></path><path d="M488.814 689.327L488.947 692.77L494.451 692.558L494.589 696.105L489.084 696.318L489.382 704.015L485.73 704.157L485.023 685.894L498.092 685.387L498.231 688.962L488.814 689.327Z" fill="white"></path><path d="M508.483 704.168C503.499 704.005 500.679 700.047 500.86 694.489C501.041 688.93 504.115 685.165 509.097 685.327C514.081 685.491 516.904 689.448 516.722 695.007C516.541 700.564 513.467 704.331 508.483 704.168ZM508.98 688.954C506.032 688.859 504.722 691.35 504.617 694.611C504.51 697.873 505.654 700.444 508.6 700.54C511.549 700.637 512.858 698.146 512.966 694.884C513.071 691.621 511.928 689.05 508.98 688.954Z" fill="white"></path><path d="M529.563 705.525L527.047 698.625L523.389 698.218L522.66 704.757L519.027 704.352L521.049 686.187L529.507 687.129C532.932 687.511 535.55 689.72 535.119 693.585C534.815 696.31 533.459 697.893 531.048 698.545L533.739 705.99L529.563 705.525ZM529.037 690.65L524.29 690.121L523.768 694.793L528.519 695.321C530.204 695.508 531.199 694.832 531.375 693.248C531.556 691.613 530.645 690.828 529.037 690.65Z" fill="white"></path><path d="M548.646 708.976L544.171 697.818C543.879 697.063 543.483 696.044 543.352 695.534C543.209 696.198 542.78 698.455 542.567 699.451L540.885 707.316L537.363 706.562L541.184 688.689L544.606 689.421L548.917 700.222C549.207 700.978 549.605 701.998 549.736 702.506C549.878 701.843 550.308 699.585 550.519 698.59L552.136 691.031L555.66 691.785L551.838 709.657L548.646 708.976Z" fill="white"></path><path d="M556.41 711.113L561.941 693.693L565.423 694.8L559.894 712.219L556.41 711.113Z" fill="white"></path><path d="M575.563 718.889L576.048 714.596L570.035 711.681L566.965 714.719L563.441 713.011L577.71 699.619L580.905 701.167L579.18 720.643L575.563 718.889ZM576.824 707.428C576.962 706.307 577.111 705.16 577.242 704.469C576.782 705.002 575.977 705.829 575.18 706.631L572.676 709.103L576.435 710.926L576.824 707.428Z" fill="white"></path><path d="M281.623 349.115C280.592 340.224 279.56 331.332 278.527 322.441C297.481 315.005 316.614 308.381 336.108 302.505C338.432 329.297 340.757 356.088 343.082 382.88C324.632 388.462 306.527 394.719 288.565 401.713C282.974 396.125 279.584 389.493 278.791 381.973C277.843 372.987 280.555 364.97 283.327 356.418C293.761 352.247 304.304 348.363 314.955 344.764C313.862 333.759 312.771 322.754 311.68 311.749C297.021 319.823 288.81 334.672 281.623 349.115ZM319.301 388.594C317.9 374.455 316.498 360.317 315.095 346.178C306.938 352.439 301.733 362.217 302.652 372.504C303.456 381.489 310.254 387.996 319.301 388.594ZM421.861 296.336C425.077 290.825 426.696 288.08 429.96 282.61C438.211 281.508 442.345 281.025 450.622 280.196C456.762 286.602 460.639 293.105 462.235 299.535C463.812 305.787 464.699 312.193 464.878 318.639C465.212 332.528 465.545 346.416 465.876 360.305C457.59 360.957 449.321 361.78 441.066 362.775C440.586 349.653 440.107 336.531 439.629 323.41C439.254 313.143 437.6 305.988 434.641 301.996C431.682 298.006 428.1 296.295 423.942 296.895C423.251 296.966 422.568 297.103 421.903 297.303C421.391 298.365 424.967 308.185 425.332 316.592C426.026 332.586 426.721 348.581 427.416 364.575C419.315 365.738 411.239 367.064 403.189 368.553C402.494 356.11 401.8 343.668 401.107 331.225C400.727 322.856 400.651 312.923 397.034 306.23C395.49 303.372 392.004 302.123 388.049 302.93C387.145 303.131 386.264 303.422 385.418 303.799C386.828 326.272 388.237 348.745 389.646 371.219C381.61 372.896 373.611 374.736 365.647 376.739C363.627 349.864 361.61 322.988 359.595 296.113C367.882 294.029 376.209 292.113 384.576 290.367C384.889 295.354 385.045 297.848 385.358 302.836C388.818 297.061 390.562 294.185 394.077 288.46C402.314 286.872 406.443 286.147 414.718 284.835C417.418 288.461 419.807 292.308 421.861 296.336ZM541.436 359.114C531.65 358.746 521.898 358.532 512.105 358.473C512.113 372.095 512.123 385.718 512.133 399.34C504.003 399.359 495.875 399.544 487.75 399.897C487.209 359.148 486.669 318.399 486.132 277.649C504.978 276.986 523.733 277.013 542.579 277.724C549.905 290.163 554 304.942 553.247 318.875C552.462 333.422 548.285 345.711 541.436 359.114ZM512.048 278.815C512.068 304.767 512.086 330.72 512.103 356.672C522.42 346.251 527.747 332.163 527.851 317.64C527.955 303.138 522.531 289.035 512.048 278.815ZM599.372 282.92C598.246 309.968 597.122 337.017 595.998 364.065C587.76 362.934 579.5 361.973 571.22 361.182C572.01 334.094 572.798 307.006 573.583 279.918C582.199 280.743 590.796 281.743 599.372 282.92ZM648.574 294.277C646.859 320.355 645.144 346.432 643.427 372.51C635.282 370.722 627.101 369.103 618.886 367.654C620.321 340.655 621.759 313.655 623.199 286.657C640.336 289.815 657.277 293.533 674.162 297.84C668.935 305.539 663.751 313.265 658.61 321.018C655.828 311.951 652.836 302.776 648.574 294.277ZM732.517 359.266C722.779 355.579 712.954 352.138 703.04 348.943C702.811 356.642 703.755 364.331 705.84 371.746C707.854 378.657 713.274 390.879 715.106 391.267C717.769 391.832 728.024 379.189 731.223 371.009C736.387 379.445 741.489 387.916 746.529 396.421C745.065 398.722 743.447 400.922 741.687 403.005C723.437 395.782 705.038 389.324 686.276 383.563C680.521 369.784 677.708 354.803 678.933 339.881C679.63 331.4 681.12 324.599 683.329 319.528C685.962 313.687 689.328 308.205 693.346 303.216C711.741 308.853 729.807 315.138 747.732 322.126C747.677 323.202 747.578 324.408 747.426 325.732C745.897 338.143 740.707 349.818 732.517 359.266ZM703.628 346.307C712.243 340.591 724.484 326.511 721.636 314.352C712.323 320.141 703.282 332.613 703.628 346.307Z" fill="black"></path><path d="M139.125 329.24C139.125 329.24 156.882 301.741 190.391 301.741C196.692 371.919 208.621 443.807 227.21 498.659C227.21 498.659 223.351 373.924 228.098 295.809C228.098 295.809 341.22 242.418 499.985 242.418C679.555 242.418 795.124 295.002 839.802 304.455C839.802 304.455 793.828 304.892 777.503 305.751C761.178 306.611 655.498 257.782 499.985 257.782C375.473 257.782 289.617 296.225 256.835 308.391C247.384 401.135 240.021 506.832 240.021 579.014C191.537 471.599 178.362 424.91 162.408 319.5C162.408 319.5 156.023 318.068 139.125 329.24Z" fill="black"></path><path d="M806.775 319.147C806.775 319.147 820.744 341.474 822.181 344.086C822.181 344.086 838.107 318.755 838.891 316.666L775.313 319.016C775.313 319.016 747.423 362.443 779.396 399.417C806.89 431.211 792.856 462.433 774.813 510.054C774.813 510.054 771.805 452.694 766.006 439.375C766.006 439.375 760.636 450.331 756.77 455.917C752.903 461.502 747.963 468.162 749.252 477.185C750.541 486.208 756.424 502.115 757.629 537.337C758.703 568.702 759.42 575.376 760.064 579.243C760.064 579.243 806.602 494.801 814.336 461.574C817.636 447.392 832.786 411.036 809.753 388.532C772.522 352.154 806.775 319.147 806.775 319.147Z" fill="black"></path><path d="M227.492 629.831C227.51 629.822 227.528 629.813 227.492 629.831Z" fill="black"></path><path d="M892.151 620.172C890.191 614.998 884.477 613.668 878.951 612.381C878.458 612.267 877.998 612.16 877.595 612.06C851.584 605.604 824.561 600.059 799.448 596.023C799.206 595.985 798.956 595.946 798.713 595.907C816.26 561.111 831.521 527.406 844.234 495.312C858.182 460.103 869.131 426.718 876.778 396.087C889.169 346.445 888.874 320.197 888.753 316.415C889.6 300.132 882.807 292.311 877.341 286.017C876.912 285.523 876.484 285.027 876.056 284.529C867.319 274.299 843.17 260.698 833.193 255.325C812.72 244.299 793.511 236.098 781.811 233.386C778.308 232.567 774.723 232.15 771.125 232.142C762.795 232.141 755.595 234.469 750.311 238.663C748.797 232.798 743.898 228.333 735.418 225.065C733.1 224.05 713.554 215.749 676.227 207.43C640.548 199.478 581.01 190 499.986 190C455.265 190 388.389 193.024 323.76 207.43C286.451 215.746 266.912 224.045 264.584 225.064C256.103 228.333 251.204 232.798 249.69 238.664C244.406 234.47 237.206 232.142 228.876 232.142C225.278 232.15 221.693 232.567 218.19 233.386C206.489 236.097 187.28 244.299 166.807 255.325C156.83 260.698 132.681 274.299 123.946 284.528C123.519 285.028 123.09 285.524 122.661 286.016C117.194 292.31 110.401 300.132 111.248 316.415C111.127 320.199 110.832 346.448 123.223 396.086C130.869 426.718 141.818 460.103 155.766 495.312C168.479 527.406 183.74 561.11 201.288 595.907C201.045 595.946 200.795 595.985 200.553 596.023C175.441 600.059 148.419 605.604 122.406 612.059C122.003 612.16 121.543 612.266 121.05 612.381C115.524 613.667 109.81 614.997 107.847 620.18C106.543 623.608 106.573 628.807 109.16 632.089C112.239 636.008 117.491 636.902 122.127 637.692C123.232 637.88 124.275 638.057 125.106 638.247C136.874 640.812 148.45 644.192 159.749 648.363C175.024 654.194 187.092 662.317 191.902 666.309C189.257 670.862 182.003 679.654 169.273 685.261C159.437 689.461 149.025 692.159 138.387 693.263C137.866 693.32 136.917 693.361 136 693.4C130.755 693.624 124.228 693.902 121.683 699.436C118.977 705.288 120.825 712.357 125.811 715.179C128.94 716.954 133.028 717.662 136.635 718.287C137.559 718.448 138.431 718.599 139.188 718.751C150.913 720.966 162.827 722.023 174.758 721.908C190.922 721.908 208.79 720.404 230.992 717.176C234.392 716.681 237.77 716.171 241.038 715.678C247.242 714.742 253.283 713.833 259.423 713.021C264.753 719.39 273.49 728.086 281.949 735.42C296.878 748.366 305.639 753.097 306.004 753.292L327.235 764.616L316.258 743.202C311.144 732.773 307.075 721.865 304.109 710.635C307.896 710.88 311.644 711.559 315.277 712.657C316.804 713.172 318.002 713.637 318.911 714.027C317.087 736.699 322.005 755.728 333.532 770.565C343.547 783.456 358.336 792.915 377.489 798.681C379.656 799.333 382.078 800 384.755 800.681C384.902 805.53 385.096 809.769 385.355 812.527C387.108 831.205 398.728 844.695 417.236 849.54C434.787 854.141 466.449 857 499.863 857H500.11C533.522 857 565.184 854.141 582.741 849.539C601.245 844.695 612.865 831.205 614.619 812.529C614.877 809.77 615.071 805.534 615.218 800.688C617.911 800.008 620.337 799.335 622.512 798.68C641.665 792.915 656.454 783.456 666.469 770.565C677.993 755.732 682.911 736.712 681.09 714.027C682 713.637 683.2 713.17 684.732 712.654C688.354 711.56 692.09 710.883 695.867 710.637C692.907 721.868 688.838 732.777 683.719 743.202L672.742 764.616L693.972 753.292C694.338 753.097 703.099 748.367 718.028 735.42C726.486 728.086 735.225 719.389 740.555 713.018C746.703 713.831 752.75 714.741 758.962 715.678C762.23 716.171 765.609 716.681 769.008 717.176C791.21 720.404 809.079 721.908 825.243 721.908C837.173 722.024 849.086 720.966 860.809 718.752C861.569 718.599 862.441 718.448 863.365 718.288C866.972 717.663 871.061 716.954 874.195 715.177C879.176 712.356 881.024 705.286 878.31 699.42C875.773 693.902 869.246 693.624 864.001 693.4C863.084 693.361 862.135 693.32 861.607 693.263C850.971 692.158 840.562 689.461 830.727 685.261C817.998 679.654 810.744 670.862 808.099 666.31C812.909 662.317 824.977 654.194 840.252 648.364C851.549 644.193 863.122 640.813 874.887 638.248C875.726 638.057 876.769 637.88 877.873 637.692C882.523 636.9 887.794 636.003 890.868 632.053C893.427 628.769 893.453 623.599 892.151 620.172ZM118.793 316.349C117.934 301.741 124.006 296.063 129.676 289.424C141.418 275.675 196.406 246.172 219.891 240.729C222.837 240.041 225.851 239.689 228.876 239.679C238.318 239.68 246.98 243.331 250.249 251.614C251.728 255.362 252.789 256.636 253.555 256.636C255.013 256.636 255.396 252.011 255.543 251.041C255.746 249.704 256.237 245.321 256.73 242.123C256.92 240.891 256.572 236.182 267.455 232.037C267.455 232.037 344.464 197.538 499.986 197.538C655.509 197.538 732.547 232.037 732.547 232.037C743.429 236.182 743.082 240.891 743.271 242.123C743.763 245.321 744.254 249.704 744.457 251.041C744.605 252.011 744.988 256.636 746.446 256.636C747.212 256.636 748.273 255.361 749.752 251.614C753.021 243.33 761.682 239.679 771.125 239.679C774.15 239.689 777.164 240.041 780.11 240.729C803.594 246.172 858.582 275.675 870.325 289.424C875.994 296.063 882.067 301.741 881.208 316.349C881.208 316.349 885.766 407.381 790.895 594.684C790.3 595.86 789.701 597.039 789.098 598.221C788.498 599.4 787.894 600.581 787.286 601.765C782.553 610.987 777.576 620.438 772.356 630.117L772.341 630.109C772.16 630.444 771.982 630.776 771.801 631.111C771.801 631.111 765.141 640.933 744.88 639.132C728.239 637.652 723.273 633.198 722.578 625.409L722.575 625.368C722.554 625.134 722.539 624.896 722.526 624.656C722.523 624.598 722.52 624.54 722.517 624.482C722.508 624.28 722.501 624.074 722.497 623.867C722.495 623.764 722.493 623.66 722.492 623.555C722.491 623.388 722.49 623.22 722.492 623.05C722.497 622.515 722.513 621.969 722.544 621.407C722.718 618.271 724.1 609.269 725.476 595.719C725.599 594.502 725.722 593.25 725.845 591.963C725.961 590.741 726.076 589.488 726.19 588.204C729.014 556.277 730.859 505.01 720.253 446.679C719.201 440.894 718.15 438.972 717.099 438.972C715.859 438.972 714.619 441.645 713.379 443.815C713.379 443.815 708.224 451.835 705.646 454.413C703.896 456.164 702.628 459.155 698.078 459.155C695.929 459.155 693.046 458.487 689.036 456.704C689.036 456.704 615.413 417.135 499.986 417.135C384.559 417.135 310.965 456.704 310.965 456.704C306.954 458.487 304.072 459.155 301.922 459.155C297.374 459.155 296.104 456.163 294.354 454.413C291.776 451.835 286.621 443.815 286.621 443.815C285.381 441.644 284.142 438.972 282.902 438.972C281.851 438.972 280.799 440.895 279.748 446.679C269.142 505.01 270.987 556.277 273.811 588.204C273.924 589.489 274.039 590.742 274.156 591.963C274.278 593.252 274.401 594.504 274.525 595.719C275.9 609.269 277.283 618.271 277.457 621.407C277.489 621.981 277.511 622.933 277.51 622.855C277.51 622.932 277.507 623.008 277.506 623.085C277.505 623.229 277.503 623.372 277.499 623.514C277.496 623.643 277.493 623.772 277.488 623.9C277.481 624.086 277.472 624.269 277.462 624.451C277.457 624.529 277.452 624.608 277.446 624.686C277.431 624.907 277.413 625.126 277.392 625.342C277.388 625.374 277.385 625.405 277.382 625.437C276.573 633.218 271.709 637.949 255.045 639.184C254.744 639.206 254.464 639.213 254.17 639.23C254.488 639.207 254.793 639.195 255.118 639.166L255.121 639.132C254.024 639.229 252.974 639.287 251.956 639.32C251.369 639.331 250.782 639.342 250.22 639.334C233.714 639.091 228.244 630.768 228.244 630.768C227.952 630.491 227.699 630.176 227.491 629.831C227.473 629.84 227.456 629.848 227.491 629.831C222.326 620.255 217.401 610.899 212.714 601.765C212.105 600.58 211.501 599.398 210.902 598.221C210.298 597.038 209.7 595.859 209.105 594.684C114.235 407.381 118.793 316.349 118.793 316.349ZM586.961 674.699C587.995 677.87 588.994 680.937 589.838 684.434C580.864 671.126 569.931 659.251 557.409 649.211C530.861 627.836 505.041 620.132 503.955 619.815L503.108 619.567L502.072 619.264H497.9L496.864 619.567L496.018 619.815C494.933 620.132 469.115 627.833 442.564 649.211C430.062 659.236 419.143 671.09 410.177 684.373C411.017 680.901 412.011 677.851 413.04 674.699C415.524 667.085 418.092 659.212 417.88 646.204C417.716 637.497 414.394 629.145 408.534 622.703C403.002 616.474 396.576 611.934 392.223 609.061C372.604 596.099 342.784 589.231 301.063 588.067C297.227 587.961 293.323 587.907 289.459 587.907C286.731 587.907 284.035 587.942 281.356 587.993C280.422 577.529 279.592 564.947 279.284 550.634C278.542 518.918 280.724 487.201 285.802 455.886C286.792 457.24 287.868 458.528 289.024 459.743C289.128 459.847 289.396 460.173 289.592 460.411C291.269 462.45 294.757 466.693 301.922 466.693C305.373 466.693 309.332 465.679 314.026 463.592L314.285 463.477L314.534 463.343C314.709 463.249 332.97 453.556 364.844 443.993C394.22 435.179 441.511 424.673 499.986 424.673C558.695 424.673 606.15 435.258 635.622 444.137C667.363 453.7 685.291 463.249 685.468 463.344L685.717 463.478L685.975 463.592C690.669 465.679 694.628 466.693 698.078 466.693C705.245 466.693 708.732 462.45 710.408 460.411C710.604 460.173 710.872 459.846 710.975 459.743C712.132 458.528 713.208 457.24 714.198 455.886C719.277 487.2 721.459 518.916 720.717 550.631C720.409 564.946 719.579 577.528 718.645 587.993C715.965 587.942 713.27 587.907 710.541 587.907C706.68 587.907 702.776 587.961 698.938 588.067C657.216 589.231 627.396 596.099 607.775 609.063C603.425 611.934 596.999 616.474 591.467 622.703C585.607 629.145 582.285 637.497 582.12 646.204C581.909 659.213 584.477 667.085 586.961 674.699ZM309.551 746.641C309.551 746.641 301.345 742.264 286.886 729.725C280.428 724.131 274.284 718.186 268.479 711.917C272.179 711.506 275.949 711.135 279.862 710.831C284.878 710.441 289.691 710.243 294.169 710.243C294.879 710.243 295.575 710.25 296.263 710.26C296.386 710.79 296.512 711.319 296.641 711.847C299.745 723.855 304.07 735.514 309.551 746.641ZM384.331 763.387L384.321 763.572L384.309 763.784V764.172C384.309 766.513 384.32 780.163 384.565 792.849C382.797 792.378 381.162 791.916 379.661 791.462C347.182 781.686 322.735 758.903 326.452 714.288C326.551 713.054 327.046 711.249 326.818 710.448C326.293 708.636 320.57 706.486 317.675 705.511C313.433 704.087 308.098 703.307 302.437 702.951C301.161 702.87 299.869 702.812 298.569 702.772C297.294 702.733 296.012 702.713 294.729 702.708C294.542 702.707 294.355 702.705 294.169 702.705C288.993 702.705 283.848 702.96 279.277 703.316C273.487 703.766 267.972 704.351 262.592 705.016C261.122 705.197 259.662 705.385 258.211 705.578C256.76 705.771 255.315 705.968 253.876 706.169C245.896 707.287 238.062 708.529 229.907 709.716C213.105 712.16 193.738 714.37 174.758 714.37C163.016 714.37 151.419 713.524 140.678 711.362C137.09 710.639 132.144 710.106 129.523 708.619C128.206 707.874 127.403 705.023 128.53 702.585C129.361 700.778 136.152 701.091 139.215 700.755C150.615 699.564 161.771 696.667 172.311 692.16C191.824 683.564 200.469 668.383 200.469 664.729C200.469 662.368 183.805 649.478 162.436 641.321C150.805 637.029 138.892 633.546 126.78 630.897C122.766 629.982 116.8 629.632 115.079 627.423C114.514 626.706 114.278 624.473 114.895 622.85C115.527 621.182 121.272 620.108 124.221 619.376C148.997 613.227 175.769 607.641 201.749 603.466C202.79 603.299 203.833 603.136 204.875 602.971C210.24 613.468 215.803 624.054 221.566 634.73L221.747 635.064L221.96 635.378C222.25 635.795 222.563 636.196 222.897 636.578C222.871 636.687 222.921 636.468 222.897 636.578C222.379 638.995 222.642 641.205 224.309 642.144C225.41 642.764 226.648 641.392 227.911 641.393C228.236 641.352 228.556 641.273 228.863 641.159L228.862 641.158C230.112 640.851 231.635 640.283 232.313 640.69C233.217 641.233 233.381 642.606 233.859 643.793C234.013 644.289 234.302 644.731 234.693 645.071C235.085 645.411 235.563 645.635 236.075 645.718C236.843 645.837 237.627 645.686 238.296 645.29C239.808 644.492 241.2 643.023 242.96 643.055C243.99 643.073 245.562 643.339 246.381 644.184C247.868 645.715 253.517 646.236 255.145 644.656C257.626 642.246 258.384 642.024 258.384 642.024C258.384 642.024 261.403 645.259 267.43 644.404C269.671 644.086 272.709 643.697 273.442 641.354C274.126 639.172 273.662 638.206 275.905 637.854C282.149 636.872 281.368 630.498 281.368 630.498C281.368 630.498 284.397 629.753 284.88 627.841C284.904 627.687 284.922 627.536 284.943 627.384C284.944 627.268 284.934 627.152 284.914 627.037L284.916 627.038L284.911 627.026C284.897 626.937 284.878 626.848 284.854 626.761C285.06 624.844 285.102 622.913 284.982 620.989C284.889 619.308 284.561 616.682 284.066 612.708C283.521 608.335 282.799 602.55 282.078 595.517C284.524 595.474 286.981 595.444 289.459 595.444C293.215 595.444 297.013 595.497 300.853 595.602C335.008 596.555 367.059 601.469 388.072 615.353C393.535 618.803 398.52 622.957 402.898 627.709C407.57 632.798 410.218 639.42 410.345 646.327C410.674 666.574 403.757 672.394 401.238 691.246C402.532 691.632 403.846 692 405.168 692.361C394.251 711.053 385.991 734.469 384.331 763.387ZM608.127 764.172C608.127 765.166 608.122 780.999 607.829 794.704C607.801 796.02 607.771 797.315 607.737 798.576C607.701 799.915 607.662 801.213 607.62 802.456C607.489 806.299 607.323 809.599 607.115 811.824C605.653 827.388 596.318 838.193 580.831 842.247C563.852 846.698 532.921 849.462 500.11 849.462H499.863C467.05 849.462 436.12 846.698 419.144 842.247C403.655 838.193 394.319 827.387 392.859 811.824C392.65 809.598 392.484 806.295 392.353 802.45C392.31 801.207 392.271 799.908 392.236 798.57C392.202 797.309 392.171 796.013 392.143 794.698C391.851 780.994 391.846 765.166 391.846 764.172V763.996L391.856 763.819C393.493 735.285 401.874 712.385 412.821 694.28C413.515 693.133 414.217 692.006 414.93 690.899C415.665 689.756 416.41 688.633 417.163 687.53C425.566 675.3 435.717 664.368 447.29 655.083C472.678 634.641 497.105 627.35 498.133 627.05L498.98 626.802H500.993L501.84 627.05C502.868 627.35 527.294 634.641 552.683 655.083C564.258 664.369 574.41 675.303 582.813 687.535C583.567 688.638 584.311 689.761 585.047 690.904C585.759 692.012 586.462 693.139 587.155 694.285C598.1 712.39 606.48 735.287 608.117 763.819L608.127 763.996L608.127 764.172ZM713.09 729.725C698.631 742.264 690.425 746.641 690.425 746.641C695.905 735.514 700.231 723.855 703.335 711.847C703.465 711.32 703.591 710.791 703.713 710.261C704.41 710.25 705.113 710.243 705.832 710.243C710.31 710.243 715.123 710.441 720.139 710.831C724.044 711.135 727.807 711.504 731.499 711.914C725.694 718.185 719.549 724.13 713.09 729.725ZM884.921 627.423C883.201 629.632 877.236 629.982 873.22 630.897C861.109 633.546 849.196 637.029 837.565 641.321C816.196 649.478 799.532 662.368 799.532 664.729C799.532 668.383 808.177 683.564 827.69 692.16C838.229 696.666 849.386 699.564 860.786 700.756C863.849 701.091 870.639 700.778 871.47 702.586C872.597 705.023 871.794 707.874 870.478 708.62C867.857 710.106 862.912 710.639 859.323 711.362C848.58 713.524 836.987 714.37 825.243 714.37C806.265 714.37 786.895 712.16 770.094 709.716C761.932 708.528 754.091 707.285 746.103 706.166C744.664 705.964 743.219 705.767 741.768 705.575C740.316 705.382 738.855 705.195 737.387 705.013C732.014 704.349 726.506 703.766 720.723 703.316C716.152 702.96 711.008 702.705 705.832 702.705C705.637 702.705 705.442 702.707 705.247 702.708C703.965 702.713 702.682 702.734 701.407 702.773C700.107 702.813 698.815 702.872 697.539 702.952C691.887 703.31 686.561 704.089 682.326 705.511C679.431 706.486 673.708 708.636 673.184 710.448C672.956 711.249 673.45 713.054 673.549 714.288C677.266 758.903 652.818 781.686 620.34 791.462C618.83 791.917 617.186 792.382 615.408 792.856C615.652 780.168 615.664 766.513 615.664 764.172V763.776L615.651 763.556L615.641 763.38C613.982 734.469 605.724 711.057 594.81 692.367C596.14 692.005 597.461 691.634 598.763 691.246C596.243 672.394 589.327 666.574 589.656 646.327C589.782 639.42 592.431 632.798 597.102 627.709C601.481 622.957 606.466 618.803 611.929 615.353C632.941 601.469 664.993 596.555 699.148 595.602C702.987 595.496 706.784 595.443 710.541 595.444C713.02 595.444 715.476 595.474 717.923 595.518C717.202 602.549 716.48 608.334 715.935 612.707C715.44 616.682 715.112 619.308 715.019 620.989C714.893 622.958 714.94 624.934 715.158 626.895L715.158 626.898C715.159 626.929 715.167 626.957 715.169 626.988C715.33 629.15 718.664 630.093 718.664 630.093C718.664 630.093 717.79 636.455 724.019 637.529C726.257 637.914 725.778 638.873 726.43 641.065C727.128 643.418 730.161 643.852 732.396 644.203C738.41 645.147 741.476 641.956 741.476 641.956C741.476 641.956 742.231 642.19 744.676 644.636C746.281 646.24 751.937 645.802 753.446 644.293C754.277 643.461 755.853 643.218 756.884 643.214C758.647 643.209 760.019 644.703 761.523 645.523C762.19 645.936 762.978 646.108 763.756 646.011C764.266 645.929 764.743 645.707 765.134 645.369C765.524 645.032 765.813 644.592 765.967 644.099C766.467 642.916 766.649 641.538 767.564 641.007C768.267 640.599 769.847 641.234 771.111 641.553C771.448 641.649 771.794 641.705 772.144 641.721C773.407 641.719 774.646 643.091 775.746 642.471C777.407 641.535 777.594 639.012 777.082 636.602C777.425 636.212 777.745 635.803 778.042 635.376L778.254 635.063L778.434 634.73C784.203 624.055 789.767 613.469 795.125 602.971C796.168 603.136 797.211 603.299 798.252 603.466C824.231 607.641 851.004 613.227 875.779 619.375C878.728 620.108 884.474 621.182 885.106 622.85C885.723 624.473 885.487 626.706 884.921 627.423Z" fill="black"></path></svg>