<svg width="1000" height="849" viewBox="0 0 1000 849" fill="none" xmlns="http://www.w3.org/2000/svg">
<path d="M159.47 558.262C155.618 559.458 153.545 559.586 150.393 562.366C147.69 564.751 145.252 573.786 149.14 575.978C150.541 576.768 152.116 575.021 153.724 575.023C155.314 575.026 158.384 573.437 159.55 574.114C161.615 575.314 160.75 579.902 164.395 580.484C167.636 581.003 169.853 576.914 173.139 576.924C174.45 576.929 176.454 577.238 177.513 578.297C179.433 580.218 186.629 580.775 188.67 578.734C191.781 575.62 192.742 575.323 192.742 575.323C192.742 575.323 196.642 579.384 204.294 578.183C207.138 577.736 210.995 577.184 211.885 574.189C212.714 571.398 212.105 570.178 214.952 569.687C222.877 568.321 221.764 560.223 221.764 560.223C221.764 560.223 224.98 558.983 225.07 556.148C225.139 553.971 222.981 550.871 220.691 550.871C209.213 550.871 162.832 557.217 159.47 558.262Z" fill="black"/>
<path d="M840.497 558.262C844.349 559.458 846.421 559.586 849.572 562.366C852.276 564.751 854.714 573.786 850.825 575.978C849.425 576.768 847.849 575.021 846.242 575.023C844.652 575.026 841.582 573.437 840.415 574.114C838.352 575.314 839.216 579.902 835.571 580.484C832.33 581.003 830.113 576.914 826.827 576.924C825.515 576.929 823.511 577.238 822.453 578.297C820.533 580.218 813.337 580.775 811.296 578.734C808.185 575.62 807.224 575.323 807.224 575.323C807.224 575.323 803.324 579.384 795.672 578.183C792.828 577.736 788.97 577.184 788.082 574.189C787.252 571.398 787.862 570.178 785.014 569.687C777.089 568.321 778.202 560.223 778.202 560.223C778.202 560.223 774.986 558.983 774.896 556.148C774.827 553.971 776.984 550.871 779.276 550.871C790.753 550.871 837.135 557.217 840.497 558.262Z" fill="black"/>
<path d="M227.829 611.029L181.935 615.695C180.837 615.806 179.785 616.189 178.872 616.809C177.959 617.429 177.215 618.266 176.706 619.245C176.197 620.224 175.939 621.315 175.956 622.418C175.973 623.522 176.264 624.604 176.802 625.567C177.124 626.141 184.863 639.873 200.646 658.823C207.015 666.588 218.103 677.663 228.862 686.996C247.258 702.957 257.698 708.528 257.698 708.528C250.725 694.366 245.222 679.525 241.273 664.24C235.708 641.603 234.997 616.193 234.93 615.938C234.522 614.408 233.584 613.074 232.283 612.175C230.981 611.275 229.402 610.869 227.829 611.029Z" fill="white"/>
<path d="M772.14 611.029L818.035 615.695C819.132 615.806 820.185 616.189 821.097 616.809C822.01 617.428 822.755 618.266 823.264 619.245C823.773 620.224 824.031 621.314 824.014 622.418C823.997 623.522 823.706 624.604 823.167 625.567C822.845 626.141 815.106 639.873 799.323 658.823C792.954 666.588 781.867 677.663 771.107 686.996C752.711 702.957 742.271 708.528 742.271 708.528C749.244 694.365 754.747 679.525 758.696 664.24C764.262 641.602 764.972 616.193 765.04 615.938C765.447 614.408 766.385 613.074 767.686 612.175C768.987 611.275 770.566 610.869 772.14 611.029Z" fill="white"/>
<path d="M500.018 782.372C586.473 780.944 630.849 772.283 653.105 765.58C694.425 753.136 725.529 724.137 720.801 667.348C720.674 665.777 720.045 663.48 720.335 662.46C721.003 660.153 728.283 657.417 731.966 656.176C744.761 651.879 765.369 652.18 780.818 653.382C803.365 655.137 822.663 658.474 843.631 661.529C878.233 666.563 921.398 670.822 957.153 663.624C961.719 662.703 968.011 662.024 971.346 660.133C973.021 659.183 974.042 655.555 972.608 652.452C971.551 650.152 962.912 650.55 959.015 650.123C944.511 648.606 930.317 644.918 916.908 639.182C892.082 628.241 881.083 608.917 881.083 604.266C881.083 601.26 902.284 584.854 929.472 574.471C944.269 569.008 959.426 564.575 974.835 561.203C979.944 560.038 987.533 559.593 989.721 556.78C990.442 555.868 990.741 553.025 989.956 550.96C989.152 548.836 981.842 547.469 978.09 546.537C946.569 538.711 912.508 531.6 879.456 526.286C839.461 519.856 798.731 515.015 753.369 516.277C709.914 517.49 669.136 523.745 642.403 541.417C635.453 545.808 629.11 551.096 623.54 557.144C617.596 563.622 614.227 572.051 614.066 580.843C613.647 606.614 622.447 614.022 625.652 638.019C580.18 651.575 520.022 652.69 500.018 652.506H499.983C479.978 652.69 419.821 651.575 374.349 638.019C377.554 614.022 386.354 606.614 385.934 580.843C385.774 572.051 382.404 563.622 376.461 557.144C370.89 551.096 364.548 545.808 357.597 541.417C330.864 523.745 290.086 517.49 246.632 516.277C201.27 515.015 160.539 519.856 120.545 526.286C87.4921 531.6 53.4315 538.711 21.91 546.537C18.1578 547.469 10.8487 548.836 10.0444 550.96C9.2592 553.025 9.55981 555.868 10.278 556.78C12.4678 559.593 20.0577 560.038 25.1659 561.203C40.5744 564.575 55.7317 569.008 70.5293 574.471C97.7162 584.854 118.918 601.26 118.918 604.266C118.918 608.917 107.918 628.241 83.0924 639.182C69.6835 644.918 55.4894 648.606 40.9853 650.123C37.0886 650.55 28.4493 650.152 27.3921 652.452C25.958 655.555 26.9797 659.183 28.6553 660.133C31.9894 662.024 38.282 662.703 42.8469 663.624C78.6034 670.822 121.768 666.563 156.37 661.529C177.337 658.474 196.635 655.137 219.182 653.382C234.632 652.18 255.239 651.879 268.034 656.176C271.717 657.417 278.998 660.153 279.666 662.46C279.956 663.48 279.327 665.777 279.201 667.348C274.471 724.137 305.575 753.136 346.896 765.58C369.152 772.283 413.527 780.944 499.983 782.372H500.018Z" fill="white"/>
<path d="M280.077 651.914C280.077 651.914 288.647 614.75 299.006 595.092C302.219 588.996 304.921 586.41 312.414 586.016C319.907 585.622 328.188 584.832 341.991 586.41C355.793 587.989 364.469 588.384 369.99 587.2C375.511 586.016 382.215 584.043 372.356 567.864C362.497 551.686 330.16 531.167 272.19 527.221C214.22 523.274 138.964 525.861 27.7559 553.878C27.7559 553.878 64.1925 554.754 107.918 584.287C120.203 592.585 127.284 598.76 127.702 606.784C128.077 613.976 106.824 649.753 52.533 656.65C52.533 656.65 106.166 661.384 174.389 649.152C242.613 636.92 268.641 644.416 280.077 651.914Z" fill="#A1A1A1"/>
<path d="M500.002 661.398C548.829 661.398 581.225 658.317 625.955 647.756C658.384 640.1 677.817 626.782 693.566 601.706C693.566 601.706 745.935 700.464 680.2 743.648C661.247 756.1 607.857 772.415 500.002 772.415H499.982C392.128 772.415 338.738 756.1 319.785 743.648C254.05 700.464 306.419 601.706 306.419 601.706C322.169 626.782 341.601 640.1 374.03 647.756C418.759 658.317 451.157 661.398 499.982 661.398H500.002Z" fill="#A1A1A1"/>
<path d="M719.909 651.914C719.909 651.914 711.339 614.75 700.98 595.092C697.767 588.996 695.063 586.41 687.571 586.016C680.078 585.622 671.797 584.832 657.994 586.41C644.192 587.989 635.517 588.384 629.996 587.2C624.475 586.016 617.771 584.043 627.63 567.864C637.487 551.686 669.825 531.167 727.795 527.221C785.766 523.274 861.021 525.861 972.229 553.878C972.229 553.878 935.793 554.754 892.068 584.287C879.782 592.585 872.701 598.76 872.283 606.784C871.907 613.976 893.162 649.753 947.452 656.65C947.452 656.65 893.819 661.384 825.595 649.152C757.371 636.92 731.343 644.416 719.909 651.914Z" fill="#A1A1A1"/>
<path d="M125.01 592.844L130.153 600.638C137.926 600.057 146.091 599.025 154.023 597.885L153.171 589.24C143.565 590.726 133.048 592.242 125.01 592.844ZM166.732 587.114C165.391 587.321 163.964 587.546 162.484 587.779L163.343 596.491C164.941 596.246 166.52 596.001 168.071 595.76C175.693 594.579 182.931 593.458 189.218 592.733L188.468 584.012C181.952 584.756 174.542 585.902 166.732 587.114ZM271.247 584.732L270.168 593.44C285.907 596.03 293.478 599.363 293.624 599.432L297.366 592.392C296.288 591.313 287.837 587.508 271.247 584.732ZM198.585 591.815C208.21 590.986 217.041 590.574 225.136 590.46L225.507 581.676C217.069 581.793 207.862 582.228 197.835 583.095L198.585 591.815ZM234.555 590.465C243.342 590.578 252.117 591.134 260.847 592.132L261.928 583.404C252.963 582.366 243.95 581.792 234.926 581.682L234.555 590.465Z" fill="#FFFF00"/>
<path d="M846.764 589.24L845.91 597.885C853.843 599.025 862.008 600.057 869.78 600.638L874.924 592.844C866.887 592.242 856.369 590.726 846.764 589.24ZM811.465 584.012L810.716 592.733C817.003 593.458 824.241 594.579 831.863 595.76C833.413 596.001 834.993 596.246 836.591 596.491L837.45 587.779C835.97 587.546 834.543 587.321 833.203 587.114C825.392 585.902 817.981 584.756 811.465 584.012ZM702.568 592.392L706.309 599.432C706.456 599.363 714.026 596.03 729.767 593.44L728.686 584.732C712.096 587.509 703.646 591.313 702.568 592.392ZM802.099 583.095C792.072 582.228 782.865 581.793 774.428 581.676L774.798 590.46C782.893 590.574 791.723 590.986 801.35 591.815L802.099 583.095ZM765.008 581.682C755.984 581.792 746.971 582.366 738.005 583.404L739.087 592.132C747.817 591.134 756.592 590.578 765.378 590.465L765.008 581.682Z" fill="#FFFF00"/>
<path d="M313.396 595.886C323.187 595.443 332.996 595.623 342.763 596.424C358.592 597.755 366.744 598.55 375.744 595.654C375.744 595.654 371.876 609.681 369.64 617.206C367.405 624.73 365.972 632.166 365.972 635.924C365.972 635.924 330.942 629.039 313.396 595.886Z" fill="#575757"/>
<path d="M686.588 595.886C676.797 595.443 666.989 595.623 657.221 596.424C641.392 597.755 633.241 598.55 624.24 595.654C624.24 595.654 628.109 609.681 630.345 617.206C632.58 624.73 634.012 632.166 634.012 635.924C634.012 635.924 669.042 629.039 686.588 595.886Z" fill="#575757"/>
<path d="M293.202 648.831L291.311 661.697C294.518 666.195 298.08 670.429 301.964 674.358L307.678 666.733C302.149 661.371 297.288 655.36 293.202 648.831Z" fill="#FFFF00"/>
<path d="M308.932 680.755C316.288 686.79 324.379 691.868 333.011 695.868L336.96 686.929C329.069 683.112 321.623 678.435 314.757 672.982L308.932 680.755Z" fill="#FFFF00"/>
<path d="M341.643 699.622C351.345 704.145 359.355 707.282 370.71 709.318L372.95 700.089C363.487 698.056 354.289 694.941 345.537 690.807L341.643 699.622Z" fill="#FFFF00"/>
<path d="M692.283 666.733L697.997 674.358C701.881 670.429 705.443 666.196 708.65 661.697L706.759 648.831C702.673 655.36 697.812 661.371 692.283 666.733Z" fill="#FFFF00"/>
<path d="M685.204 672.982C678.338 678.435 670.892 683.112 663 686.929L666.95 695.868C675.582 691.868 683.673 686.79 691.029 680.755L685.204 672.982Z" fill="#FFFF00"/>
<path d="M654.424 690.807C645.672 694.941 636.474 698.056 627.012 700.089L629.251 709.318C640.605 707.282 648.616 704.145 658.317 699.622L654.424 690.807Z" fill="#FFFF00"/>
<path d="M204.142 53.5073C190.296 58.7844 190.738 64.7778 190.497 66.3458C189.87 70.4161 189.244 75.9948 188.987 77.6978C188.702 79.5806 187.717 92.2814 182.251 78.4268C176.785 64.5722 159.475 60.8981 143.628 64.5721C113.749 71.4992 43.7897 109.053 28.851 126.554C21.6374 135.004 13.9111 142.231 15.0044 160.826C15.0044 160.826 8.44634 291.716 154.195 561.518C154.195 561.518 162.669 574.021 188.446 571.728C213.041 569.54 217.595 562.248 216.867 549.123C216.138 535.997 198.789 442.233 219.781 326.718C222.697 310.676 225.611 317.967 228.526 323.072C228.526 323.072 235.085 333.281 238.364 336.562C241.644 339.843 243.596 346.55 259.498 339.478C259.498 339.478 353.13 289.113 499.983 289.113C646.837 289.113 740.504 339.478 740.504 339.478C756.406 346.55 758.358 339.843 761.637 336.562C764.916 333.281 771.476 323.072 771.476 323.072C774.392 317.967 777.306 310.676 780.221 326.718C801.214 442.233 783.864 535.997 783.136 549.123C782.406 562.248 786.962 569.54 811.556 571.728C837.334 574.021 845.807 561.518 845.807 561.518C991.556 291.716 984.998 160.826 984.998 160.826C986.091 142.231 978.365 135.004 971.152 126.554C956.211 109.053 886.252 71.4992 856.374 64.5721C840.528 60.8981 823.216 64.5721 817.752 78.4268C812.286 92.2814 811.301 79.5806 811.015 77.6978C810.757 75.9948 810.131 70.4161 809.506 66.3458C809.265 64.7778 809.707 58.7844 795.861 53.5073C795.861 53.5073 697.849 9.59521 499.983 9.59521C302.118 9.59521 204.142 53.5073 204.142 53.5073Z" fill="white"/>
<path d="M500.14 555.99H498.702L497.624 556.305C496.317 556.687 465.239 565.968 432.939 591.987C403.003 616.101 366.467 659.689 362.411 730.394L362.398 730.618V730.842C362.398 732.758 362.413 777.9 363.687 791.497C365.546 811.307 377.423 825.062 397.129 830.222C418.727 835.887 458.078 839.406 499.825 839.406H500.14C541.883 839.406 581.236 835.887 602.837 830.222C622.541 825.062 634.418 811.308 636.278 791.497C637.551 777.9 637.566 732.758 637.566 730.842V730.618L637.552 730.394C633.498 659.689 596.962 616.101 567.026 591.987C534.725 565.968 503.648 556.687 502.341 556.305L501.263 555.99H500.14Z" fill="white"/>
<path d="M499.825 831.555C456.517 831.555 418.575 827.731 399.117 822.629C379.657 817.532 372.755 804.144 371.499 790.763C370.244 777.377 370.244 730.843 370.244 730.843C377.775 599.537 499.825 563.84 499.825 563.84H500.14C500.14 563.84 622.189 599.537 629.721 730.843C629.721 730.843 629.721 777.377 628.466 790.763C627.211 804.144 620.309 817.532 600.85 822.629C581.389 827.731 543.449 831.555 500.14 831.555H499.825Z" fill="#097B7D"/>
<path d="M490.912 788.549V694.752H481.309V680.242C487.374 679.45 492.666 678.359 495.174 672.708H510.947V788.549H490.912Z" fill="white"/>
<path d="M409.846 652.953C409.166 652.392 408.335 652.048 407.458 651.963C406.581 651.878 405.699 652.058 404.925 652.478C401.769 653.964 401.265 657.577 403.102 661.489C404.882 665.278 408.072 667.303 411.228 665.818C413.122 664.928 413.853 663.593 414.089 661.204L418.625 661.641C418.66 663.441 418.148 665.21 417.156 666.712C416.165 668.215 414.741 669.381 413.072 670.056C407.572 672.643 401.896 670.171 398.774 663.524C395.764 657.118 397.521 650.858 403.02 648.269C404.58 647.422 406.36 647.068 408.125 647.254C409.89 647.44 411.557 648.158 412.906 649.313L409.846 652.953Z" fill="white"/>
<path d="M439.751 660.602L436.611 656.092L428.415 658.356L428.034 663.84L423.232 665.168L425.622 640.372L429.975 639.169L444.682 659.24L439.751 660.602ZM431.335 648.585C430.524 647.396 429.704 646.173 429.251 645.403C429.256 646.298 429.18 647.766 429.094 649.205L428.776 653.67L433.898 652.255L431.335 648.585Z" fill="white"/>
<path d="M448.959 658.581L445.232 635.617L449.823 634.871L452.813 653.307L464.321 651.437L465.055 655.965L448.959 658.581Z" fill="white"/>
<path d="M470.271 655.514L468.021 632.36L472.65 631.911L474.899 655.065L470.271 655.514Z" fill="white"/>
<path d="M485.768 635.575L485.937 639.957L492.94 639.688L493.115 644.203L486.112 644.475L486.491 654.272L481.845 654.452L480.945 631.205L497.572 630.561L497.748 635.111L485.768 635.575Z" fill="white"/>
<path d="M510.792 654.466C504.45 654.258 500.862 649.22 501.092 642.146C501.323 635.07 505.234 630.277 511.573 630.484C517.914 630.692 521.505 635.73 521.274 642.805C521.043 649.879 517.132 654.674 510.792 654.466ZM511.424 635.101C507.673 634.98 506.007 638.15 505.873 642.302C505.736 646.453 507.192 649.726 510.941 649.848C514.692 649.971 516.358 646.8 516.494 642.648C516.628 638.496 515.174 635.223 511.424 635.101Z" fill="white"/>
<path d="M537.609 656.194L534.408 647.41L529.754 646.892L528.827 655.215L524.205 654.701L526.777 631.579L537.538 632.778C541.896 633.264 545.226 636.076 544.678 640.996C544.291 644.464 542.566 646.479 539.498 647.308L542.923 656.785L537.609 656.194ZM536.94 637.259L530.9 636.586L530.236 642.532L536.281 643.205C538.424 643.443 539.69 642.582 539.914 640.567C540.144 638.486 538.985 637.487 536.94 637.259Z" fill="white"/>
<path d="M561.892 660.586L556.199 646.383C555.827 645.422 555.323 644.125 555.157 643.476C554.975 644.322 554.429 647.194 554.157 648.462L552.018 658.473L547.537 657.513L552.398 634.764L556.751 635.695L562.237 649.443C562.606 650.406 563.111 651.704 563.278 652.351C563.46 651.507 564.006 648.633 564.275 647.366L566.332 637.744L570.815 638.705L565.953 661.453L561.892 660.586Z" fill="white"/>
<path d="M571.77 663.306L578.807 641.132L583.237 642.542L576.202 664.713L571.77 663.306Z" fill="white"/>
<path d="M596.138 673.203L596.755 667.74L589.105 664.028L585.2 667.896L580.717 665.722L598.871 648.676L602.936 650.646L600.741 675.436L596.138 673.203ZM597.743 658.615C597.918 657.188 598.109 655.728 598.275 654.85C597.69 655.527 596.666 656.58 595.651 657.601L592.466 660.748L597.248 663.068L597.743 658.615Z" fill="white"/>
<path d="M222.167 202.532C220.855 191.214 219.542 179.897 218.229 168.579C242.343 159.114 266.685 150.683 291.486 143.204C294.443 177.306 297.401 211.408 300.359 245.511C276.886 252.615 253.852 260.579 230.999 269.482C223.886 262.369 219.573 253.927 218.564 244.356C217.358 232.917 220.808 222.713 224.334 211.827C237.61 206.519 251.023 201.574 264.574 196.994C263.184 182.986 261.795 168.978 260.408 154.97C241.757 165.247 231.311 184.148 222.167 202.532ZM270.103 252.784C268.321 234.787 266.537 216.79 264.752 198.793C254.375 206.763 247.752 219.209 248.922 232.303C249.944 243.74 258.593 252.022 270.103 252.784ZM400.586 135.352C404.678 128.336 406.739 124.842 410.89 117.881C421.389 116.478 426.648 115.862 437.178 114.807C444.99 122.961 449.923 131.239 451.953 139.423C453.96 147.381 455.088 155.536 455.316 163.74C455.741 181.418 456.164 199.097 456.586 216.775C446.044 217.605 435.523 218.653 425.021 219.919C424.411 203.216 423.801 186.514 423.193 169.812C422.715 156.745 420.611 147.637 416.846 142.556C413.082 137.478 408.525 135.299 403.235 136.062C402.356 136.153 401.487 136.327 400.641 136.582C399.988 137.934 404.539 150.434 405.003 161.134C405.886 181.493 406.77 201.852 407.654 222.21C397.347 223.69 387.073 225.378 376.831 227.274C375.947 211.436 375.064 195.598 374.182 179.76C373.698 169.107 373.603 156.465 369 147.945C367.036 144.307 362.601 142.717 357.569 143.745C356.419 144 355.298 144.371 354.222 144.851C356.016 173.456 357.809 202.061 359.601 230.667C349.377 232.802 339.2 235.144 329.068 237.694C326.498 203.485 323.932 169.276 321.368 135.067C331.912 132.415 342.506 129.977 353.151 127.753C353.549 134.102 353.748 137.276 354.146 143.625C358.547 136.274 360.766 132.614 365.238 125.326C375.718 123.305 380.972 122.382 391.499 120.712C394.934 125.328 397.974 130.225 400.586 135.352ZM552.718 215.259C540.268 214.79 527.86 214.519 515.401 214.443C515.412 231.783 515.424 249.122 515.437 266.461C505.093 266.485 494.752 266.722 484.415 267.171C483.726 215.303 483.04 163.434 482.356 111.566C506.334 110.722 530.195 110.755 554.172 111.661C563.492 127.494 568.703 146.306 567.745 164.04C566.746 182.557 561.431 198.199 552.718 215.259ZM515.328 113.05C515.354 146.083 515.377 179.117 515.399 212.151C528.525 198.886 535.302 180.954 535.435 162.469C535.567 144.009 528.666 126.058 515.328 113.05ZM626.428 118.275C624.996 152.704 623.565 187.132 622.135 221.561C611.654 220.122 601.146 218.898 590.611 217.891C591.616 183.412 592.618 148.933 593.618 114.454C604.579 115.503 615.516 116.777 626.428 118.275ZM689.026 132.73C686.844 165.924 684.661 199.117 682.478 232.31C672.114 230.034 661.707 227.974 651.254 226.13C653.08 191.763 654.909 157.397 656.742 123.031C678.545 127.051 700.098 131.783 721.581 137.266C714.93 147.065 708.335 156.899 701.794 166.768C698.255 155.227 694.449 143.549 689.026 132.73ZM795.823 215.453C783.435 210.76 770.934 206.38 758.321 202.313C758.03 212.113 759.231 221.9 761.883 231.338C764.445 240.135 771.341 255.691 773.673 256.186C777.061 256.905 790.107 240.813 794.177 230.4C800.747 241.138 807.238 251.92 813.65 262.745C811.788 265.675 809.73 268.475 807.49 271.126C784.272 261.933 760.863 253.713 736.993 246.38C729.67 228.841 726.091 209.772 727.65 190.778C728.537 179.983 730.433 171.326 733.244 164.871C736.593 157.437 740.876 150.459 745.988 144.108C769.391 151.284 792.376 159.283 815.181 168.179C815.111 169.548 814.986 171.084 814.792 172.769C812.846 188.566 806.243 203.426 795.823 215.453ZM759.069 198.957C770.03 191.682 785.603 173.76 781.98 158.283C770.131 165.652 758.629 181.527 759.069 198.957Z" fill="black"/>
<path d="M40.8711 177.233C40.8711 177.233 63.4632 142.231 106.095 142.231C114.111 231.558 129.288 323.062 152.938 392.881C152.938 392.881 148.028 234.11 154.068 134.681C154.068 134.681 297.99 66.7207 499.981 66.7207C728.442 66.7207 875.475 133.654 932.317 145.686C932.317 145.686 873.826 146.242 853.057 147.336C832.287 148.43 697.834 86.2773 499.981 86.2773C341.569 86.2773 232.336 135.211 190.629 150.695C178.605 268.747 169.238 403.284 169.238 495.162C107.553 358.438 90.7911 299.008 70.4932 164.837C70.4932 164.837 62.3699 163.014 40.8711 177.233Z" fill="black"/>
<path d="M890.297 164.387C890.297 164.387 908.069 192.807 909.896 196.131C909.896 196.131 930.159 163.888 931.157 161.229L850.268 164.22C850.268 164.22 814.784 219.497 855.463 266.56C890.442 307.03 872.588 346.771 849.632 407.386C849.632 407.386 845.806 334.375 838.428 317.421C838.428 317.421 831.596 331.367 826.677 338.477C821.757 345.586 815.472 354.063 817.111 365.548C818.751 377.032 826.236 397.281 827.77 442.113C829.136 482.037 830.048 490.532 830.867 495.454C830.867 495.454 890.077 387.971 899.915 345.677C904.114 327.625 923.389 281.349 894.085 252.704C846.718 206.401 890.297 164.387 890.297 164.387Z" fill="black"/>
<path d="M153.295 559.844C153.317 559.833 153.34 559.821 153.295 559.844Z" fill="black"/>
<path d="M998.919 547.55C996.426 540.964 989.156 539.271 982.126 537.634C981.499 537.488 980.914 537.352 980.401 537.224C947.308 529.008 912.928 521.95 880.977 516.813C880.669 516.763 880.351 516.714 880.042 516.664C902.367 472.373 921.783 429.472 937.957 388.621C955.702 343.804 969.633 301.31 979.361 262.32C995.126 199.133 994.751 165.723 994.596 160.909C995.674 140.183 987.032 130.228 980.078 122.216C979.532 121.588 978.987 120.957 978.442 120.322C967.327 107.301 936.603 89.9886 923.91 83.1495C897.862 69.1151 873.424 58.6759 858.538 55.2246C854.081 54.1825 849.52 53.6511 844.943 53.6406C834.344 53.6401 825.184 56.6033 818.462 61.9414C816.536 54.4765 810.303 48.7932 799.515 44.6328C796.564 43.3406 771.697 32.7745 724.207 22.1858C678.814 12.0647 603.066 0 499.983 0C443.085 0 358.002 3.84899 275.777 22.1858C228.309 32.7713 203.451 43.3344 200.489 44.6321C189.699 48.7924 183.466 54.4764 181.54 61.9421C174.817 56.6042 165.657 53.6407 155.058 53.6405C150.481 53.6508 145.92 54.1822 141.463 55.2244C126.576 58.6758 102.138 69.115 76.0902 83.1494C63.3968 89.9886 32.6734 107.301 21.5592 120.322C21.016 120.958 20.4711 121.589 19.9245 122.215C12.9695 130.227 4.32675 140.182 5.40484 160.909C5.25051 165.726 4.87571 199.137 20.6401 262.32C30.3683 301.31 44.2983 343.804 62.0434 388.621C78.2179 429.472 97.634 472.373 119.959 516.664C119.65 516.714 119.332 516.763 119.024 516.812C87.0754 521.949 52.6954 529.007 19.601 537.224C19.0873 537.352 18.5025 537.488 17.8759 537.633C10.8453 539.271 3.5754 540.964 1.07791 547.56C-0.581517 551.924 -0.543764 558.541 2.74815 562.719C6.66487 567.707 13.3477 568.846 19.2459 569.85C20.6508 570.09 21.9778 570.316 23.0357 570.557C38.0079 573.822 52.735 578.125 67.1105 583.434C86.5445 590.856 101.898 601.195 108.017 606.277C104.652 612.072 95.4234 623.263 79.2277 630.4C66.7131 635.746 53.4666 639.18 39.9321 640.585C39.2693 640.658 38.0622 640.71 36.8951 640.76C30.2225 641.044 21.9181 641.399 18.6806 648.442C15.2376 655.891 17.5894 664.889 23.932 668.482C27.9129 670.741 33.1146 671.642 37.7041 672.438C38.8792 672.642 39.9892 672.834 40.9516 673.028C55.8686 675.847 71.0263 677.193 86.2064 677.046C106.771 677.046 129.504 675.132 157.75 671.023C162.076 670.392 166.374 669.744 170.531 669.117C178.425 667.925 186.111 666.768 193.923 665.734C200.704 673.841 211.819 684.91 222.581 694.246C241.575 710.724 252.721 716.746 253.186 716.994L280.197 731.408L266.231 704.15C259.725 690.877 254.548 676.991 250.775 662.697C255.593 663.01 260.361 663.873 264.983 665.271C266.927 665.926 268.451 666.519 269.607 667.015C267.286 695.873 273.543 720.094 288.208 738.98C300.95 755.388 319.766 767.429 344.133 774.767C346.891 775.598 349.972 776.446 353.378 777.313C353.564 783.485 353.812 788.882 354.141 792.393C356.371 816.166 371.155 833.337 394.702 839.504C417.032 845.361 457.314 849 499.825 849H500.14C542.649 849 582.932 845.361 605.269 839.503C628.81 833.337 643.594 816.166 645.825 792.394C646.154 788.883 646.401 783.49 646.587 777.322C650.014 776.457 653.101 775.601 655.868 774.767C680.235 767.429 699.051 755.388 711.793 738.98C726.454 720.1 732.711 695.89 730.394 667.015C731.552 666.518 733.079 665.924 735.028 665.268C739.637 663.874 744.39 663.013 749.195 662.7C745.429 676.995 740.252 690.881 733.739 704.151L719.774 731.408L746.784 716.994C747.249 716.746 758.395 710.724 777.389 694.245C788.151 684.91 799.268 673.84 806.05 665.73C813.871 666.766 821.565 667.924 829.468 669.116C833.626 669.744 837.925 670.393 842.25 671.023C870.497 675.132 893.23 677.046 913.795 677.046C928.973 677.193 944.129 675.848 959.045 673.029C960.011 672.834 961.121 672.642 962.296 672.438C966.885 671.643 972.087 670.741 976.075 668.479C982.413 664.887 984.763 655.889 981.31 648.422C978.082 641.399 969.778 641.044 963.106 640.76C961.938 640.71 960.732 640.658 960.059 640.585C946.528 639.178 933.285 635.745 920.773 630.4C904.578 623.263 895.349 612.072 891.984 606.277C898.103 601.195 913.457 590.856 932.891 583.434C947.263 578.126 961.987 573.823 976.956 570.559C978.023 570.316 979.35 570.09 980.754 569.851C986.671 568.843 993.377 567.7 997.288 562.673C1000.54 558.494 1000.58 551.912 998.919 547.55ZM15.0037 160.826C13.9104 142.231 21.6366 135.004 28.8503 126.553C43.789 109.052 113.748 71.4987 143.627 64.5716C147.375 63.6951 151.21 63.2468 155.058 63.2352C167.071 63.2354 178.091 67.8831 182.25 78.4264C184.132 83.1964 185.482 84.8182 186.456 84.8182C188.311 84.8182 188.799 78.9319 188.986 77.6973C189.244 75.9944 189.869 70.4155 190.496 66.3453C190.737 64.7772 190.295 58.7838 204.141 53.5068C204.141 53.5068 302.117 9.59472 499.983 9.59472C697.849 9.59472 795.861 53.5068 795.861 53.5068C809.706 58.7838 809.264 64.7772 809.505 66.3453C810.13 70.4155 810.756 75.9944 811.014 77.6973C811.202 78.932 811.69 84.8182 813.545 84.8182C814.519 84.8182 815.869 83.1956 817.751 78.4264C821.91 67.8822 832.929 63.2347 844.943 63.2352C848.791 63.247 852.626 63.6953 856.374 64.5716C886.251 71.4987 956.211 109.052 971.151 126.553C978.364 135.004 986.09 142.231 984.997 160.826C984.997 160.826 990.796 276.697 870.096 515.107C869.338 516.604 868.576 518.105 867.81 519.61C867.045 521.11 866.277 522.613 865.504 524.121C859.482 535.859 853.151 547.888 846.509 560.209L846.489 560.199C846.259 560.625 846.034 561.047 845.803 561.474C845.803 561.474 837.329 573.977 811.552 571.684C790.38 569.8 784.062 564.131 783.179 554.216L783.174 554.164C783.148 553.867 783.128 553.563 783.112 553.258C783.108 553.184 783.104 553.111 783.1 553.037C783.089 552.779 783.081 552.517 783.075 552.254C783.072 552.122 783.07 551.99 783.069 551.857C783.067 551.644 783.067 551.43 783.069 551.214C783.075 550.533 783.095 549.838 783.135 549.122C783.357 545.131 785.115 533.673 786.865 516.425C787.022 514.876 787.178 513.282 787.334 511.643C787.482 510.089 787.628 508.494 787.773 506.859C791.366 466.221 793.713 400.965 780.22 326.717C778.882 319.354 777.545 316.907 776.207 316.907C774.63 316.907 773.052 320.309 771.475 323.071C771.475 323.071 764.916 333.28 761.636 336.562C759.409 338.79 757.796 342.598 752.008 342.598C749.273 342.598 745.606 341.747 740.503 339.478C740.503 339.478 646.836 289.112 499.983 289.112C353.129 289.112 259.498 339.478 259.498 339.478C254.394 341.747 250.728 342.598 247.993 342.598C242.206 342.598 240.59 338.79 238.364 336.562C235.084 333.28 228.526 323.071 228.526 323.071C226.948 320.309 225.371 316.907 223.794 316.907C222.457 316.907 221.119 319.355 219.781 326.717C206.288 400.965 208.635 466.221 212.228 506.859C212.372 508.495 212.518 510.09 212.666 511.643C212.822 513.285 212.979 514.878 213.136 516.425C214.886 533.672 216.644 545.131 216.866 549.122C216.907 549.853 216.935 551.064 216.933 550.965C216.933 551.064 216.93 551.16 216.929 551.258C216.927 551.442 216.924 551.623 216.92 551.804C216.917 551.969 216.912 552.133 216.906 552.296C216.897 552.532 216.886 552.765 216.873 552.997C216.867 553.097 216.86 553.196 216.853 553.296C216.833 553.577 216.81 553.856 216.783 554.131C216.779 554.171 216.775 554.212 216.77 554.253C215.742 564.156 209.554 570.179 188.352 571.75C187.97 571.778 187.613 571.787 187.239 571.809C187.644 571.779 188.031 571.764 188.445 571.727L188.449 571.684C187.053 571.808 185.718 571.881 184.422 571.922C183.675 571.937 182.928 571.951 182.214 571.941C161.213 571.631 154.255 561.037 154.255 561.037C153.883 560.685 153.561 560.284 153.296 559.845C153.274 559.856 153.252 559.866 153.296 559.845C146.726 547.655 140.459 535.747 134.496 524.121C133.722 522.612 132.953 521.108 132.191 519.61C131.423 518.104 130.661 516.603 129.905 515.108C9.20487 276.697 15.0037 160.826 15.0037 160.826ZM610.637 616.956C611.953 620.991 613.225 624.896 614.298 629.347C602.881 612.408 588.971 597.292 573.039 584.513C539.264 557.306 506.413 547.499 505.032 547.095L503.954 546.78L502.637 546.395H497.329L496.011 546.78L494.933 547.096C493.554 547.499 460.707 557.301 426.927 584.513C411.02 597.273 397.129 612.362 385.721 629.269C386.79 624.85 388.055 620.968 389.364 616.956C392.524 607.264 395.792 597.243 395.522 580.686C395.312 569.602 391.087 558.972 383.63 550.773C376.593 542.843 368.417 537.065 362.879 533.408C337.919 516.908 299.98 508.166 246.899 506.685C242.019 506.55 237.052 506.481 232.136 506.481C228.665 506.481 225.236 506.526 221.827 506.591C220.638 493.271 219.583 477.256 219.191 459.037C218.246 418.668 221.022 378.297 227.484 338.437C228.743 340.16 230.112 341.8 231.583 343.346C231.715 343.478 232.057 343.894 232.306 344.197C234.439 346.792 238.876 352.192 247.993 352.192C252.383 352.192 257.42 350.901 263.392 348.246L263.721 348.099L264.038 347.929C264.261 347.809 287.494 335.471 328.046 323.298C365.42 312.08 425.587 298.707 499.983 298.707C574.675 298.707 635.051 312.18 672.548 323.482C712.931 335.654 735.739 347.808 735.965 347.929L736.281 348.1L736.609 348.246C742.581 350.901 747.618 352.192 752.008 352.192C761.126 352.192 765.562 346.792 767.694 344.197C767.944 343.893 768.285 343.478 768.416 343.346C769.888 341.8 771.258 340.16 772.517 338.436C778.978 378.295 781.754 418.666 780.81 459.035C780.418 477.255 779.363 493.27 778.174 506.591C774.765 506.526 771.336 506.481 767.864 506.481C762.952 506.481 757.985 506.55 753.102 506.685C700.02 508.166 662.082 516.908 637.118 533.411C631.585 537.065 623.408 542.843 616.37 550.772C608.914 558.972 604.688 569.602 604.479 580.686C604.21 597.244 607.477 607.265 610.637 616.956ZM257.698 708.528C257.698 708.528 247.258 702.957 228.862 686.996C220.647 679.876 212.829 672.309 205.444 664.329C210.151 663.806 214.948 663.334 219.926 662.947C226.307 662.45 232.431 662.198 238.128 662.198C239.032 662.198 239.917 662.207 240.792 662.22C240.949 662.895 241.109 663.568 241.274 664.24C245.222 679.525 250.726 694.365 257.698 708.528ZM352.839 729.843L352.825 730.079L352.81 730.349V730.842C352.81 733.823 352.825 751.197 353.136 767.344C350.886 766.745 348.806 766.157 346.897 765.58C305.576 753.136 274.472 724.136 279.201 667.348C279.327 665.776 279.957 663.479 279.666 662.459C278.998 660.153 271.718 657.417 268.034 656.175C262.637 654.363 255.85 653.37 248.647 652.916C247.024 652.814 245.381 652.74 243.727 652.689C242.104 652.639 240.473 652.613 238.841 652.607C238.604 652.606 238.366 652.604 238.128 652.604C231.544 652.604 224.997 652.929 219.182 653.381C211.816 653.954 204.799 654.699 197.954 655.545C196.084 655.776 194.226 656.015 192.38 656.26C190.534 656.506 188.696 656.756 186.865 657.012C176.712 658.436 166.745 660.017 156.371 661.528C134.993 664.638 110.354 667.452 86.2065 667.452C71.2676 667.452 56.5132 666.374 42.8471 663.623C38.2822 662.702 31.9896 662.024 28.6556 660.132C26.9799 659.183 25.9582 655.554 27.3922 652.451C28.4495 650.151 37.0888 650.549 40.9855 650.122C55.4896 648.606 69.6837 644.917 83.0926 639.181C107.918 628.24 118.918 608.917 118.918 604.265C118.918 601.26 97.7163 584.853 70.5295 574.47C55.7319 569.007 40.5746 564.574 25.166 561.202C20.058 560.038 12.468 559.592 10.2782 556.779C9.55996 555.868 9.25943 553.025 10.0447 550.96C10.849 548.835 18.1581 547.468 21.9102 546.536C53.4316 538.71 87.4923 531.6 120.545 526.286C121.87 526.073 123.197 525.865 124.523 525.656C131.348 539.017 138.426 552.492 145.759 566.08L145.988 566.506L146.259 566.905C146.628 567.436 147.027 567.946 147.452 568.433C147.419 568.572 147.482 568.293 147.452 568.433C146.793 571.51 147.128 574.322 149.248 575.517C150.649 576.307 152.224 574.56 153.831 574.562C154.245 574.51 154.651 574.41 155.042 574.264L155.041 574.263C156.631 573.872 158.568 573.149 159.431 573.667C160.581 574.358 160.79 576.106 161.399 577.617C161.594 578.248 161.962 578.811 162.46 579.244C162.958 579.676 163.567 579.961 164.218 580.066C165.194 580.218 166.193 580.026 167.043 579.522C168.967 578.506 170.737 576.636 172.977 576.677C174.288 576.7 176.287 577.039 177.33 578.114C179.221 580.063 186.409 580.726 188.479 578.715C191.636 575.648 192.601 575.365 192.601 575.365C192.601 575.365 196.441 579.483 204.11 578.394C206.96 577.989 210.825 577.494 211.759 574.512C212.629 571.734 212.038 570.505 214.892 570.057C222.836 568.807 221.843 560.693 221.843 560.693C221.843 560.693 225.696 559.746 226.311 557.312C226.341 557.116 226.364 556.924 226.39 556.73C226.392 556.582 226.379 556.434 226.353 556.289L226.356 556.289L226.35 556.274C226.332 556.161 226.307 556.048 226.277 555.937C226.539 553.497 226.593 551.039 226.44 548.59C226.321 546.45 225.905 543.108 225.274 538.05C224.581 532.483 223.663 525.12 222.746 516.168C225.858 516.113 228.983 516.075 232.137 516.075C236.915 516.075 241.747 516.142 246.632 516.276C290.086 517.489 330.864 523.744 357.598 541.416C364.548 545.807 370.89 551.095 376.461 557.144C382.404 563.621 385.774 572.05 385.935 580.842C386.354 606.613 377.554 614.021 374.349 638.018C375.995 638.509 377.666 638.978 379.348 639.437C365.459 663.229 354.95 693.034 352.839 729.843ZM637.566 730.842C637.566 732.108 637.559 752.261 637.187 769.706C637.152 771.38 637.113 773.029 637.07 774.634C637.025 776.338 636.975 777.991 636.921 779.573C636.754 784.464 636.544 788.666 636.279 791.497C634.419 811.308 622.542 825.061 602.838 830.222C581.236 835.887 541.884 839.405 500.14 839.405H499.825C458.079 839.405 418.728 835.887 397.13 830.222C377.424 825.061 365.546 811.306 363.688 791.497C363.422 788.664 363.212 784.46 363.044 779.565C362.99 777.983 362.941 776.33 362.895 774.627C362.853 773.021 362.813 771.372 362.778 769.698C362.406 752.254 362.399 732.108 362.399 730.842V730.618L362.412 730.393C364.495 694.073 375.158 664.925 389.086 641.879C389.968 640.42 390.862 638.986 391.768 637.575C392.704 636.121 393.651 634.691 394.61 633.288C405.301 617.721 418.214 603.806 432.939 591.987C465.24 565.967 496.317 556.687 497.625 556.305L498.702 555.989H501.264L502.342 556.305C503.649 556.687 534.725 565.967 567.026 591.987C581.753 603.807 594.669 617.724 605.36 633.294C606.319 634.698 607.266 636.127 608.202 637.583C609.108 638.993 610.002 640.427 610.884 641.887C624.81 664.931 635.47 694.077 637.553 730.393L637.566 730.618L637.566 730.842ZM771.107 686.996C752.711 702.957 742.272 708.528 742.272 708.528C749.244 694.365 754.747 679.525 758.696 664.24C758.861 663.569 759.021 662.896 759.177 662.221C760.063 662.207 760.958 662.198 761.873 662.198C767.57 662.198 773.693 662.45 780.075 662.947C785.043 663.333 789.831 663.804 794.528 664.326C787.143 672.307 779.324 679.875 771.107 686.996ZM989.722 556.779C987.533 559.592 979.944 560.038 974.835 561.202C959.426 564.574 944.269 569.007 929.472 574.47C902.284 584.853 881.083 601.26 881.083 604.265C881.083 608.917 892.082 628.24 916.908 639.181C930.317 644.917 944.511 648.605 959.015 650.122C962.913 650.549 971.551 650.151 972.608 652.451C974.043 655.554 973.021 659.183 971.346 660.132C968.011 662.024 961.72 662.702 957.154 663.623C943.486 666.375 928.736 667.452 913.795 667.452C889.65 667.452 865.006 664.638 843.631 661.528C833.247 660.015 823.271 658.433 813.108 657.008C811.278 656.752 809.439 656.501 807.592 656.257C805.745 656.012 803.887 655.773 802.019 655.541C795.183 654.696 788.175 653.953 780.818 653.381C775.003 652.928 768.458 652.604 761.873 652.604C761.625 652.604 761.377 652.607 761.129 652.607C759.497 652.614 757.866 652.64 756.243 652.69C754.589 652.741 752.945 652.816 751.322 652.919C744.131 653.373 737.355 654.365 731.966 656.175C728.284 657.416 721.003 660.152 720.335 662.459C720.045 663.479 720.674 665.776 720.801 667.348C725.53 724.136 694.425 753.136 653.105 765.58C651.184 766.158 649.091 766.75 646.829 767.354C647.141 751.203 647.155 733.823 647.155 730.842V730.338L647.139 730.059L647.125 729.834C645.015 693.034 634.509 663.235 620.623 639.445C622.315 638.983 623.996 638.512 625.652 638.018C622.447 614.021 613.648 606.613 614.066 580.842C614.227 572.05 617.596 563.621 623.54 557.144C629.111 551.095 635.453 545.807 642.404 541.416C669.136 523.744 709.914 517.489 753.369 516.276C758.253 516.141 763.084 516.074 767.864 516.075C771.018 516.075 774.143 516.114 777.255 516.169C776.338 525.119 775.42 532.482 774.727 538.048C774.096 543.108 773.68 546.45 773.561 548.59C773.401 551.097 773.46 553.612 773.738 556.108L773.738 556.112C773.739 556.151 773.749 556.187 773.752 556.226C773.957 558.978 778.199 560.179 778.199 560.179C778.199 560.179 777.086 568.277 785.011 569.643C787.859 570.134 787.249 571.354 788.079 574.145C788.967 577.139 792.825 577.692 795.669 578.139C803.321 579.34 807.221 575.279 807.221 575.279C807.221 575.279 808.182 575.576 811.293 578.69C813.334 580.731 820.53 580.173 822.45 578.253C823.508 577.194 825.512 576.884 826.824 576.88C829.067 576.873 830.813 578.775 832.726 579.819C833.575 580.344 834.578 580.564 835.568 580.44C836.217 580.336 836.823 580.053 837.32 579.623C837.817 579.193 838.184 578.633 838.381 578.006C839.016 576.501 839.249 574.747 840.412 574.07C841.307 573.551 843.317 574.359 844.925 574.765C845.353 574.888 845.794 574.959 846.239 574.979C847.846 574.976 849.422 576.724 850.822 575.934C852.936 574.743 853.173 571.531 852.522 568.463C852.958 567.967 853.365 567.446 853.742 566.903L854.013 566.504L854.242 566.08C861.582 552.493 868.66 539.018 875.477 525.656C876.804 525.865 878.131 526.073 879.456 526.286C912.508 531.6 946.57 538.71 978.091 546.536C981.843 547.468 989.152 548.835 989.957 550.96C990.741 553.025 990.442 555.868 989.722 556.779Z" fill="black"/>
</svg>
